<?xml version="1.0" encoding="UTF-8" standalone="no"?>
<svg version = "1.1" baseProfile = "full" xmlns="http://www.w3.org/2000/svg" xmlns:xlink = "http://www.w3.org/1999/xlink" xmlns:ev="http://www.w3.org/2001/xml-events" width="2500" height="2500">
      <line  x1="95" y1="145" x2="120" y2="145" stroke="black" stroke-width="2"/>
      <circle cx="95" cy="145" r="10" fill="white" stroke="black" stroke-width="2"/>
      <line  x1="570" y1="145" x2="595" y2="145" stroke="black" stroke-width="2"/>
      <circle cx="595" cy="145" r="10" fill="white" stroke="black" stroke-width="2"/>
      <line  x1="170" y1="95" x2="170" y2="120" stroke="black" stroke-width="2"/>
      <line  x1="520" y1="95" x2="520" y2="120" stroke="black" stroke-width="2"/>
      <line  x1="120" y1="145" x2="170" y2="145" stroke="black" stroke-width="2"/>
      <line  x1="520" y1="145" x2="570" y2="145" stroke="black" stroke-width="2"/>
      <line  x1="170" y1="170" x2="170" y2="195" stroke="black" stroke-width="2"/>
      <line  x1="520" y1="170" x2="520" y2="195" stroke="black" stroke-width="2"/>
      <line  x1="170" y1="120" x2="170" y2="170" stroke="black" stroke-width="2"/>
      <line  x1="520" y1="120" x2="520" y2="170" stroke="black" stroke-width="2"/>
      <line  x1="170" y1="95" x2="220" y2="95" stroke="black" stroke-width="2"/>
      <line  x1="470" y1="95" x2="520" y2="95" stroke="black" stroke-width="2"/>
      <rect x="220" y="70" width="50" height="50" fill="none" stroke="black" stroke-width="2"/>
      <text x="245" y="95" text-anchor="middle" alignment-baseline="middle" style="font-size:25px">A</text>
      <rect x="320" y="70" width="50" height="50" fill="none" stroke="black" stroke-width="2"/>
      <text x="345" y="95" text-anchor="middle" alignment-baseline="middle" style="font-size:25px">B</text>
      <rect x="420" y="70" width="50" height="50" fill="none" stroke="black" stroke-width="2"/>
      <text x="445" y="95" text-anchor="middle" alignment-baseline="middle" style="font-size:25px">&#172;C</text>
      <line  x1="270" y1="95" x2="320" y2="95" stroke="black" stroke-width="2"/>
      <line  x1="370" y1="95" x2="420" y2="95" stroke="black" stroke-width="2"/>
      <line  x1="170" y1="195" x2="220" y2="195" stroke="black" stroke-width="2"/>
      <line  x1="470" y1="195" x2="520" y2="195" stroke="black" stroke-width="2"/>
      <line  x1="220" y1="195" x2="270" y2="195" stroke="black" stroke-width="2"/>
      <line  x1="420" y1="195" x2="470" y2="195" stroke="black" stroke-width="2"/>
      <rect x="270" y="170" width="50" height="50" fill="none" stroke="black" stroke-width="2"/>
      <text x="295" y="195" text-anchor="middle" alignment-baseline="middle" style="font-size:25px">A</text>
      <rect x="370" y="170" width="50" height="50" fill="none" stroke="black" stroke-width="2"/>
      <text x="395" y="195" text-anchor="middle" alignment-baseline="middle" style="font-size:25px">B</text>
      <line  x1="320" y1="195" x2="370" y2="195" stroke="black" stroke-width="2"/>
      <text x="345" y="295" text-anchor="middle" alignment-baseline="middle" style="font-size:25px">(A&#8743;B&#8743;&#172;C)&#8744;(A&#8743;B)\</text>
</svg>
